<svg id="visual" viewBox="0 0 1920 1080" width="1920" height="1080" xmlns="http://www.w3.org/2000/svg" xmlns:xlink="http://www.w3.org/1999/xlink" version="1.1"><rect x="0" y="0" width="1920" height="1080" fill="#002233"></rect><path d="M0 1000L45.7 982.8C91.3 965.7 182.7 931.3 274.2 931.5C365.7 931.7 457.3 966.3 548.8 995.7C640.3 1025 731.7 1049 823 1034.8C914.3 1020.7 1005.7 968.3 1097 951.2C1188.3 934 1279.7 952 1371.2 962.3C1462.7 972.7 1554.3 975.3 1645.8 971.2C1737.3 967 1828.7 956 1874.3 950.5L1920 945L1920 1081L1874.3 1081C1828.7 1081 1737.3 1081 1645.8 1081C1554.3 1081 1462.7 1081 1371.2 1081C1279.7 1081 1188.3 1081 1097 1081C1005.7 1081 914.3 1081 823 1081C731.7 1081 640.3 1081 548.8 1081C457.3 1081 365.7 1081 274.2 1081C182.7 1081 91.3 1081 45.7 1081L0 1081Z" fill="#0066FF" stroke-linecap="round" stroke-linejoin="miter"></path></svg>