<svg id="visual" viewBox="0 0 1920 2000" width="1920" height="2000" xmlns="http://www.w3.org/2000/svg" xmlns:xlink="http://www.w3.org/1999/xlink" version="1.1"><rect x="0" y="0" width="1920" height="2000" fill="#F7770F"></rect><path d="M0 1905L26.7 1906.7C53.3 1908.3 106.7 1911.7 160 1915C213.3 1918.3 266.7 1921.7 320 1922.5C373.3 1923.3 426.7 1921.7 480 1916.8C533.3 1912 586.7 1904 640 1895.7C693.3 1887.3 746.7 1878.7 800 1872.2C853.3 1865.7 906.7 1861.3 960 1863.2C1013.3 1865 1066.7 1873 1120 1883.5C1173.3 1894 1226.7 1907 1280 1913C1333.3 1919 1386.7 1918 1440 1909.5C1493.3 1901 1546.7 1885 1600 1888.3C1653.3 1891.7 1706.7 1914.3 1760 1917.2C1813.3 1920 1866.7 1903 1893.3 1894.5L1920 1886L1920 2001L1893.3 2001C1866.7 2001 1813.3 2001 1760 2001C1706.7 2001 1653.3 2001 1600 2001C1546.7 2001 1493.3 2001 1440 2001C1386.7 2001 1333.3 2001 1280 2001C1226.7 2001 1173.3 2001 1120 2001C1066.7 2001 1013.3 2001 960 2001C906.7 2001 853.3 2001 800 2001C746.7 2001 693.3 2001 640 2001C586.7 2001 533.3 2001 480 2001C426.7 2001 373.3 2001 320 2001C266.7 2001 213.3 2001 160 2001C106.7 2001 53.3 2001 26.7 2001L0 2001Z" fill="#009473" stroke-linecap="round" stroke-linejoin="miter"></path></svg>