<svg id="visual" viewBox="0 0 1920 600" width="1920" height="600" xmlns="http://www.w3.org/2000/svg" xmlns:xlink="http://www.w3.org/1999/xlink" version="1.1"><rect x="0" y="0" width="1920" height="600" fill="#f3ac42"></rect><path d="M0 517L53.3 524.2C106.7 531.3 213.3 545.7 320 545.5C426.7 545.3 533.3 530.7 640 523C746.7 515.3 853.3 514.7 960 520.5C1066.7 526.3 1173.3 538.7 1280 541.3C1386.7 544 1493.3 537 1600 539.5C1706.7 542 1813.3 554 1866.7 560L1920 566L1920 601L1866.7 601C1813.3 601 1706.7 601 1600 601C1493.3 601 1386.7 601 1280 601C1173.3 601 1066.7 601 960 601C853.3 601 746.7 601 640 601C533.3 601 426.7 601 320 601C213.3 601 106.7 601 53.3 601L0 601Z" fill="#888277" stroke-linecap="round" stroke-linejoin="miter"></path></svg>