<svg id="visual" viewBox="0 0 1920 600" width="1920" height="600" xmlns="http://www.w3.org/2000/svg" xmlns:xlink="http://www.w3.org/1999/xlink" version="1.1"><rect x="0" y="0" width="1920" height="600" fill="#002233"></rect><path d="M0 426L45.7 437.3C91.3 448.7 182.7 471.3 274.2 471.3C365.7 471.3 457.3 448.7 548.8 451C640.3 453.3 731.7 480.7 823 494.7C914.3 508.7 1005.7 509.3 1097 493.3C1188.3 477.3 1279.7 444.7 1371.2 435.3C1462.7 426 1554.3 440 1645.8 448.7C1737.3 457.3 1828.7 460.7 1874.3 462.3L1920 464L1920 601L1874.3 601C1828.7 601 1737.3 601 1645.8 601C1554.3 601 1462.7 601 1371.2 601C1279.7 601 1188.3 601 1097 601C1005.7 601 914.3 601 823 601C731.7 601 640.3 601 548.8 601C457.3 601 365.7 601 274.2 601C182.7 601 91.3 601 45.7 601L0 601Z" fill="#286b7c" stroke-linecap="round" stroke-linejoin="miter"></path></svg>