<svg id="visual" viewBox="0 0 1920 1800" width="1920" height="1800" xmlns="http://www.w3.org/2000/svg" xmlns:xlink="http://www.w3.org/1999/xlink" version="1.1"><rect x="0" y="0" width="1920" height="1800" fill="#0066FF"></rect><path d="M0 1570L53.3 1593C106.7 1616 213.3 1662 320 1673.8C426.7 1685.7 533.3 1663.3 640 1633.8C746.7 1604.3 853.3 1567.7 960 1565.8C1066.7 1564 1173.3 1597 1280 1616.5C1386.7 1636 1493.3 1642 1600 1639.7C1706.7 1637.3 1813.3 1626.7 1866.7 1621.3L1920 1616L1920 1801L1866.7 1801C1813.3 1801 1706.7 1801 1600 1801C1493.3 1801 1386.7 1801 1280 1801C1173.3 1801 1066.7 1801 960 1801C853.3 1801 746.7 1801 640 1801C533.3 1801 426.7 1801 320 1801C213.3 1801 106.7 1801 53.3 1801L0 1801Z" fill="#F7770F" stroke-linecap="round" stroke-linejoin="miter"></path></svg>