<svg id="visual" viewBox="0 0 1920 1000" width="1920" height="1000" xmlns="http://www.w3.org/2000/svg" xmlns:xlink="http://www.w3.org/1999/xlink" version="1.1"><rect x="0" y="0" width="1920" height="1000" fill="#286b7c"></rect><path d="M0 909L45.7 904.8C91.3 900.7 182.7 892.3 274.2 879.3C365.7 866.3 457.3 848.7 548.8 851.2C640.3 853.7 731.7 876.3 823 889C914.3 901.7 1005.7 904.3 1097 886.8C1188.3 869.3 1279.7 831.7 1371.2 831.3C1462.7 831 1554.3 868 1645.8 880.2C1737.3 892.3 1828.7 879.7 1874.3 873.3L1920 867L1920 1001L1874.3 1001C1828.7 1001 1737.3 1001 1645.8 1001C1554.3 1001 1462.7 1001 1371.2 1001C1279.7 1001 1188.3 1001 1097 1001C1005.7 1001 914.3 1001 823 1001C731.7 1001 640.3 1001 548.8 1001C457.3 1001 365.7 1001 274.2 1001C182.7 1001 91.3 1001 45.7 1001L0 1001Z" fill="#F7770F" stroke-linecap="round" stroke-linejoin="miter"></path></svg>