<svg id="visual" viewBox="0 0 1920 1400" width="1920" height="1400" xmlns="http://www.w3.org/2000/svg" xmlns:xlink="http://www.w3.org/1999/xlink" version="1.1"><rect x="0" y="0" width="1920" height="1400" fill="#6600FF"></rect><path d="M0 1159L45.7 1170.2C91.3 1181.3 182.7 1203.7 274.2 1197.3C365.7 1191 457.3 1156 548.8 1139.7C640.3 1123.3 731.7 1125.7 823 1135C914.3 1144.3 1005.7 1160.7 1097 1173.8C1188.3 1187 1279.7 1197 1371.2 1212.8C1462.7 1228.7 1554.3 1250.3 1645.8 1233.5C1737.3 1216.7 1828.7 1161.3 1874.3 1133.7L1920 1106L1920 1401L1874.3 1401C1828.7 1401 1737.3 1401 1645.8 1401C1554.3 1401 1462.7 1401 1371.2 1401C1279.7 1401 1188.3 1401 1097 1401C1005.7 1401 914.3 1401 823 1401C731.7 1401 640.3 1401 548.8 1401C457.3 1401 365.7 1401 274.2 1401C182.7 1401 91.3 1401 45.7 1401L0 1401Z" fill="#f3ac42" stroke-linecap="round" stroke-linejoin="miter"></path></svg>