<svg id="visual" viewBox="0 0 1920 300" width="1920" height="300" xmlns="http://www.w3.org/2000/svg" xmlns:xlink="http://www.w3.org/1999/xlink" version="1.1"><rect x="0" y="0" width="1920" height="300" fill="#F7770F"></rect><path d="M0 208L45.7 195.7C91.3 183.3 182.7 158.7 274.2 157.5C365.7 156.3 457.3 178.7 548.8 178.2C640.3 177.7 731.7 154.3 823 152.3C914.3 150.3 1005.7 169.7 1097 181.3C1188.3 193 1279.7 197 1371.2 203C1462.7 209 1554.3 217 1645.8 219.3C1737.3 221.7 1828.7 218.3 1874.3 216.7L1920 215L1920 301L1874.3 301C1828.7 301 1737.3 301 1645.8 301C1554.3 301 1462.7 301 1371.2 301C1279.7 301 1188.3 301 1097 301C1005.7 301 914.3 301 823 301C731.7 301 640.3 301 548.8 301C457.3 301 365.7 301 274.2 301C182.7 301 91.3 301 45.7 301L0 301Z" fill="#888277" stroke-linecap="round" stroke-linejoin="miter"></path></svg>