<svg id="visual" viewBox="0 0 1920 1600" width="1920" height="1600" xmlns="http://www.w3.org/2000/svg" xmlns:xlink="http://www.w3.org/1999/xlink" version="1.1"><rect x="0" y="0" width="1920" height="1600" fill="#009473"></rect><path d="M0 1477L16.8 1460C33.7 1443 67.3 1409 101 1401C134.7 1393 168.3 1411 202 1405.3C235.7 1399.7 269.3 1370.3 303 1339.3C336.7 1308.3 370.3 1275.7 404 1263C437.7 1250.3 471.3 1257.7 505 1293.3C538.7 1329 572.3 1393 606 1414.3C639.7 1435.7 673.3 1414.3 707 1409C740.7 1403.7 774.3 1414.3 808 1405C841.7 1395.7 875.3 1366.3 909.2 1370.7C943 1375 977 1413 1010.8 1421C1044.7 1429 1078.3 1407 1112 1380.8C1145.7 1354.7 1179.3 1324.3 1213 1307C1246.7 1289.7 1280.3 1285.3 1314 1306.5C1347.7 1327.7 1381.3 1374.3 1415 1391.8C1448.7 1409.3 1482.3 1397.7 1516 1390.7C1549.7 1383.7 1583.3 1381.3 1617 1361.2C1650.7 1341 1684.3 1303 1718 1311C1751.7 1319 1785.3 1373 1819 1373.3C1852.7 1373.7 1886.3 1320.3 1903.2 1293.7L1920 1267L1920 1601L1903.2 1601C1886.3 1601 1852.7 1601 1819 1601C1785.3 1601 1751.7 1601 1718 1601C1684.3 1601 1650.7 1601 1617 1601C1583.3 1601 1549.7 1601 1516 1601C1482.3 1601 1448.7 1601 1415 1601C1381.3 1601 1347.7 1601 1314 1601C1280.3 1601 1246.7 1601 1213 1601C1179.3 1601 1145.7 1601 1112 1601C1078.3 1601 1044.7 1601 1010.8 1601C977 1601 943 1601 909.2 1601C875.3 1601 841.7 1601 808 1601C774.3 1601 740.7 1601 707 1601C673.3 1601 639.7 1601 606 1601C572.3 1601 538.7 1601 505 1601C471.3 1601 437.7 1601 404 1601C370.3 1601 336.7 1601 303 1601C269.3 1601 235.7 1601 202 1601C168.3 1601 134.7 1601 101 1601C67.3 1601 33.7 1601 16.8 1601L0 1601Z" fill="#6600FF" stroke-linecap="round" stroke-linejoin="miter"></path></svg>