<svg id="visual" viewBox="0 0 1920 1080" width="1920" height="1080" xmlns="http://www.w3.org/2000/svg" xmlns:xlink="http://www.w3.org/1999/xlink" version="1.1"><rect x="0" y="0" width="1920" height="1080" fill="#001220"></rect><defs><linearGradient id="grad1_0" x1="43.8%" y1="0%" x2="100%" y2="100%"><stop offset="14.444444444444446%" stop-color="#001220" stop-opacity="1"></stop><stop offset="85.55555555555554%" stop-color="#001220" stop-opacity="1"></stop></linearGradient></defs><defs><linearGradient id="grad2_0" x1="0%" y1="0%" x2="56.3%" y2="100%"><stop offset="14.444444444444446%" stop-color="#001220" stop-opacity="1"></stop><stop offset="85.55555555555554%" stop-color="#001220" stop-opacity="1"></stop></linearGradient></defs><g transform="translate(1920, 0)"><path d="M0 648C-46.4 638.3 -92.9 628.6 -142 622C-191 615.4 -242.8 612 -281.2 583.8C-319.5 555.6 -344.6 502.7 -364.7 457.4C-384.9 412.1 -400.1 374.4 -430.8 343.5C-461.5 312.7 -507.7 288.6 -524.4 252.5C-541.1 216.4 -528.3 168.3 -544 124.2C-559.7 80.1 -603.9 40 -648 0L0 0Z" fill="#FBAE3C"></path></g><g transform="translate(0, 1080)"><path d="M0 -648C52.9 -647.6 105.7 -647.1 140 -613.2C174.2 -579.3 189.8 -511.9 241.2 -500.9C292.7 -489.9 380.1 -535.3 404 -506.6C427.9 -477.9 388.4 -375.2 412.8 -329.2C437.2 -283.2 525.6 -294.1 557.7 -268.6C589.8 -243.1 565.6 -181.2 571.3 -130.4C577 -79.6 612.5 -39.8 648 0L0 0Z" fill="#FBAE3C"></path></g></svg>