<svg xmlns="http://www.w3.org/2000/svg" viewBox="0 0 50 50"><path fill="#dbd8dd" d="M1.53,11.17V44.9A3.06,3.06,0,0,0,4.58,48H45.42a3.06,3.06,0,0,0,3-3.05V11.17Z"/><path fill="#475f6c" d="M48.47,11.17V5.1a3.06,3.06,0,0,0-3-3H4.58a3.06,3.06,0,0,0-3,3.05v6.07Z"/><circle cx="43.33" cy="6.61" r="1.25" fill="#dbd8dd"/><circle cx="38.75" cy="6.61" r="1.25" fill="#dbd8dd"/><circle cx="34.17" cy="6.61" r="1.25" fill="#dbd8dd"/><path fill="#dbd8dd" d="M26.37,5.56H6.46a1.05,1.05,0,0,0,0,2.1H26.37a1.05,1.05,0,1,0,0-2.1Z"/><rect width="15.97" height="1.6" x="18.05" y="22.08" fill="#ef5261" transform="rotate(-68.64 26.03 22.881)"/><path fill="#ef5261" d="M19.56 27.92l-5.3-4.42a.83.83 0 0 1-.29-.62.79.79 0 0 1 .29-.61l5.3-4.43 1 1.23L16 22.88l4.57 3.81zM32.5 27.92l-1-1.23L36 22.88l-4.57-3.81 1-1.23 5.3 4.43a.79.79 0 0 1 .29.61.83.83 0 0 1-.29.62z"/><rect width="39.17" height="1.59" x="5.42" y="32.83" fill="#bbbbcd"/><rect width="39.17" height="1.59" x="5.42" y="37.92" fill="#bbbbcd"/><rect width="39.17" height="1.59" x="5.42" y="43.01" fill="#bbbbcd"/></svg>