<svg id="visual" viewBox="0 0 1920 300" width="1920" height="300" xmlns="http://www.w3.org/2000/svg" xmlns:xlink="http://www.w3.org/1999/xlink" version="1.1"><rect x="0" y="0" width="1920" height="300" fill="#888277"></rect><path d="M0 215L53.3 215.2C106.7 215.3 213.3 215.7 320 215C426.7 214.3 533.3 212.7 640 215.8C746.7 219 853.3 227 960 231.7C1066.7 236.3 1173.3 237.7 1280 236.5C1386.7 235.3 1493.3 231.7 1600 225.5C1706.7 219.3 1813.3 210.7 1866.7 206.3L1920 202L1920 301L1866.7 301C1813.3 301 1706.7 301 1600 301C1493.3 301 1386.7 301 1280 301C1173.3 301 1066.7 301 960 301C853.3 301 746.7 301 640 301C533.3 301 426.7 301 320 301C213.3 301 106.7 301 53.3 301L0 301Z" fill="#888277" stroke-linecap="round" stroke-linejoin="miter"></path></svg>