<svg id="visual" viewBox="0 0 400 800" width="400" height="800" xmlns="http://www.w3.org/2000/svg" xmlns:xlink="http://www.w3.org/1999/xlink" version="1.1"><rect x="0" y="0" width="400" height="800" fill="#1b1d1f"></rect><path d="M0 634L9.5 637.8C19 641.7 38 649.3 57 653.5C76 657.7 95 658.3 114 656C133 653.7 152 648.3 171.2 656.8C190.3 665.3 209.7 687.7 228.8 685.3C248 683 267 656 286 655.2C305 654.3 324 679.7 343 683.5C362 687.3 381 669.7 390.5 660.8L400 652L400 801L390.5 801C381 801 362 801 343 801C324 801 305 801 286 801C267 801 248 801 228.8 801C209.7 801 190.3 801 171.2 801C152 801 133 801 114 801C95 801 76 801 57 801C38 801 19 801 9.5 801L0 801Z" fill="#c20000" stroke-linecap="round" stroke-linejoin="miter"></path></svg>