<svg id="visual" viewBox="0 0 1920 600" width="1920" height="600" xmlns="http://www.w3.org/2000/svg" xmlns:xlink="http://www.w3.org/1999/xlink" version="1.1"><rect x="0" y="0" width="1920" height="600" fill="#0066FF"></rect><path d="M0 502L45.7 494.7C91.3 487.3 182.7 472.7 274.2 477.8C365.7 483 457.3 508 548.8 517.8C640.3 527.7 731.7 522.3 823 518.8C914.3 515.3 1005.7 513.7 1097 512C1188.3 510.3 1279.7 508.7 1371.2 506.7C1462.7 504.7 1554.3 502.3 1645.8 484.2C1737.3 466 1828.7 432 1874.3 415L1920 398L1920 601L1874.3 601C1828.7 601 1737.3 601 1645.8 601C1554.3 601 1462.7 601 1371.2 601C1279.7 601 1188.3 601 1097 601C1005.7 601 914.3 601 823 601C731.7 601 640.3 601 548.8 601C457.3 601 365.7 601 274.2 601C182.7 601 91.3 601 45.7 601L0 601Z" fill="#F7770F" stroke-linecap="round" stroke-linejoin="miter"></path></svg>