<svg id="visual" viewBox="0 0 1920 1080" width="1920" height="1080" xmlns="http://www.w3.org/2000/svg" xmlns:xlink="http://www.w3.org/1999/xlink" version="1.1"><rect x="0" y="0" width="1920" height="1080" fill="#F7770F"></rect><path d="M0 775L96 789L192 930L288 870L384 789L480 867L576 799L672 908L768 917L864 900L960 854L1056 898L1152 918L1248 796L1344 951L1440 776L1536 928L1632 889L1728 778L1824 885L1920 962L1920 1081L1824 1081L1728 1081L1632 1081L1536 1081L1440 1081L1344 1081L1248 1081L1152 1081L1056 1081L960 1081L864 1081L768 1081L672 1081L576 1081L480 1081L384 1081L288 1081L192 1081L96 1081L0 1081Z" fill="#009473" stroke-linecap="square" stroke-linejoin="bevel"></path></svg>