<svg id="visual" viewBox="0 0 1920 800" width="1920" height="800" xmlns="http://www.w3.org/2000/svg" xmlns:xlink="http://www.w3.org/1999/xlink" version="1.1"><rect x="0" y="0" width="1920" height="800" fill="#0066FF"></rect><path d="M0 679L45.7 653C91.3 627 182.7 575 274.2 546.2C365.7 517.3 457.3 511.7 548.8 534.2C640.3 556.7 731.7 607.3 823 636.5C914.3 665.7 1005.7 673.3 1097 675C1188.3 676.7 1279.7 672.3 1371.2 656C1462.7 639.7 1554.3 611.3 1645.8 593.5C1737.3 575.7 1828.7 568.3 1874.3 564.7L1920 561L1920 801L1874.3 801C1828.7 801 1737.3 801 1645.8 801C1554.3 801 1462.7 801 1371.2 801C1279.7 801 1188.3 801 1097 801C1005.7 801 914.3 801 823 801C731.7 801 640.3 801 548.8 801C457.3 801 365.7 801 274.2 801C182.7 801 91.3 801 45.7 801L0 801Z" fill="#F7770F" stroke-linecap="round" stroke-linejoin="miter"></path></svg>