<svg id="visual" viewBox="0 0 1920 1000" width="1920" height="1000" xmlns="http://www.w3.org/2000/svg" xmlns:xlink="http://www.w3.org/1999/xlink" version="1.1"><rect x="0" y="0" width="1920" height="1000" fill="#0066FF"></rect><path d="M0 704L32 714C64 724 128 744 192 767.8C256 791.7 320 819.3 384 791.7C448 764 512 681 576 644.2C640 607.3 704 616.7 768 647.2C832 677.7 896 729.3 960 751.7C1024 774 1088 767 1152 774.2C1216 781.3 1280 802.7 1344 780.5C1408 758.3 1472 692.7 1536 670.5C1600 648.3 1664 669.7 1728 669.3C1792 669 1856 647 1888 636L1920 625L1920 1001L1888 1001C1856 1001 1792 1001 1728 1001C1664 1001 1600 1001 1536 1001C1472 1001 1408 1001 1344 1001C1280 1001 1216 1001 1152 1001C1088 1001 1024 1001 960 1001C896 1001 832 1001 768 1001C704 1001 640 1001 576 1001C512 1001 448 1001 384 1001C320 1001 256 1001 192 1001C128 1001 64 1001 32 1001L0 1001Z" fill="#F7770F" stroke-linecap="round" stroke-linejoin="miter"></path></svg>