<svg id="visual" viewBox="0 0 1920 1080" width="1920" height="1080" xmlns="http://www.w3.org/2000/svg" xmlns:xlink="http://www.w3.org/1999/xlink" version="1.1"><rect x="0" y="0" width="1920" height="1080" fill="#F7770F"></rect><path d="M0 776L53.3 776.8C106.7 777.7 213.3 779.3 320 776.8C426.7 774.3 533.3 767.7 640 779C746.7 790.3 853.3 819.7 960 836.7C1066.7 853.7 1173.3 858.3 1280 853.8C1386.7 849.3 1493.3 835.7 1600 813.8C1706.7 792 1813.3 762 1866.7 747L1920 732L1920 1081L1866.7 1081C1813.3 1081 1706.7 1081 1600 1081C1493.3 1081 1386.7 1081 1280 1081C1173.3 1081 1066.7 1081 960 1081C853.3 1081 746.7 1081 640 1081C533.3 1081 426.7 1081 320 1081C213.3 1081 106.7 1081 53.3 1081L0 1081Z" fill="#888277" stroke-linecap="round" stroke-linejoin="miter"></path></svg>