<svg id="visual" viewBox="0 0 1920 600" width="1920" height="600" xmlns="http://www.w3.org/2000/svg" xmlns:xlink="http://www.w3.org/1999/xlink" version="1.1"><rect x="0" y="0" width="1920" height="600" fill="#002233"></rect><path d="M0 511L45.7 495.7C91.3 480.3 182.7 449.7 274.2 442.5C365.7 435.3 457.3 451.7 548.8 457.2C640.3 462.7 731.7 457.3 823 453.5C914.3 449.7 1005.7 447.3 1097 457.3C1188.3 467.3 1279.7 489.7 1371.2 498.2C1462.7 506.7 1554.3 501.3 1645.8 491.8C1737.3 482.3 1828.7 468.7 1874.3 461.8L1920 455L1920 601L1874.3 601C1828.7 601 1737.3 601 1645.8 601C1554.3 601 1462.7 601 1371.2 601C1279.7 601 1188.3 601 1097 601C1005.7 601 914.3 601 823 601C731.7 601 640.3 601 548.8 601C457.3 601 365.7 601 274.2 601C182.7 601 91.3 601 45.7 601L0 601Z" fill="#0066FF" stroke-linecap="round" stroke-linejoin="miter"></path></svg>