<svg id="visual" viewBox="0 0 1920 250" width="1920" height="250" xmlns="http://www.w3.org/2000/svg" xmlns:xlink="http://www.w3.org/1999/xlink" version="1.1"><rect x="0" y="0" width="1920" height="250" fill="#F7770F"></rect><path d="M0 129L26.7 127.7C53.3 126.3 106.7 123.7 160 126.5C213.3 129.3 266.7 137.7 320 145.3C373.3 153 426.7 160 480 164.3C533.3 168.7 586.7 170.3 640 166.5C693.3 162.7 746.7 153.3 800 149.8C853.3 146.3 906.7 148.7 960 152.2C1013.3 155.7 1066.7 160.3 1120 156.5C1173.3 152.7 1226.7 140.3 1280 133.5C1333.3 126.7 1386.7 125.3 1440 137.3C1493.3 149.3 1546.7 174.7 1600 186.8C1653.3 199 1706.7 198 1760 193.2C1813.3 188.3 1866.7 179.7 1893.3 175.3L1920 171L1920 251L1893.3 251C1866.7 251 1813.3 251 1760 251C1706.7 251 1653.3 251 1600 251C1546.7 251 1493.3 251 1440 251C1386.7 251 1333.3 251 1280 251C1226.7 251 1173.3 251 1120 251C1066.7 251 1013.3 251 960 251C906.7 251 853.3 251 800 251C746.7 251 693.3 251 640 251C586.7 251 533.3 251 480 251C426.7 251 373.3 251 320 251C266.7 251 213.3 251 160 251C106.7 251 53.3 251 26.7 251L0 251Z" fill="#888277" stroke-linecap="round" stroke-linejoin="miter"></path></svg>